<svg version="1.1" id="Layer_1" xmlns="http://www.w3.org/2000/svg" xmlns:xlink="http://www.w3.org/1999/xlink" x="0px" y="0px" viewBox="0 0 100 89.0237274" style="enable-background:new 0 0 100 89.0237274;" xml:space="preserve"><defs><style> .st0 {  fill: #2e3947; } .svg-style-0 {  fill: #2e3947; }</style></defs><path id="path-10" class="st0" d="M16.7247505,86.1881409c-0.253418,0-0.4594727-0.2060547-0.4594727-0.4599609V51.652195  c-1.0251474,0.2216797-1.9451914,0.541748-2.8349619,0.9584351v33.1175499c0,1.8164062,1.4780273,3.2939453,3.2944345,3.2939453  h33.2752686l1.0427666-1.31604l-1.0427666-1.5179443H16.7247505z"/><path id="path-9" d="M83.7345123,51.473278v34.2549019c0,0.2539062-0.2060547,0.4599609-0.4594727,0.4599609H50.0000191v2.8339844  h33.2750206c1.8164062,0,3.2944336-1.4775391,3.2944336-3.2939453V51.473278H83.7345123z" class="svg-style-0"/><path id="path-8" class="st0" d="M80.1546249,46.6443253h1.2416992c0.2717285,0,0.4805298,0.2228394,0.4855347,0.4945679  c0.0048218,0.2639771,0.2203369,0.4763794,0.4853516,0.4763794h4.3306885c2.1157837,0,3.888855-1.4827881,4.3283081-3.4688721  c0.0715942-0.3116455,0.1083984-0.6348877,0.1083984-0.9678345c0-1.2253418-0.4974365-2.3345337-1.3007812-3.1378174  c-0.8014526-0.8033447-1.9125977-1.2989502-3.1359253-1.2989502h-4.3306885c-0.2717285,0-0.4805298,0.2228394-0.4855347,0.4945679  c-0.0048218,0.263916-0.2202148,0.4763794-0.4853516,0.4763794h-1.2416992c-0.2717896,0-0.4805298-0.2228394-0.4855347-0.4945679  c-0.0048218-0.263916-0.2203369-0.4763794-0.4853516-0.4763794H68.2304306c-0.2717896,0-0.4805908,0.2228394-0.4855347,0.4945679  c-0.0048828,0.263916-0.2202759,0.4763794-0.4853516,0.4763794h-1.2416382c-0.2717285,0-0.4805298-0.2228394-0.4855347-0.4945679  c-0.0048218-0.263916-0.2202148-0.4763794-0.4853516-0.4763794h-4.0703735c-0.9509277,0-1.7218628,0.7709351-1.7218628,1.7218628  v5.4297485c0,0.9509888,0.7709351,1.7218628,1.7219238,1.7218628H65.04702c0.2717896,0,0.4805298-0.2228394,0.4855347-0.4945679  c0.0048218-0.263916,0.2203369-0.4763794,0.4853516-0.4763794h1.2416382c0.6103516,0,1.138855,0.3074951,1.1528931,0.3157349  c1.5119629,0.8358154,2.649353,4.4544678,2.649353,8.7919312c0,3.9284668-0.9329834,7.267334-2.2322388,8.4830322  c-0.701355,0.656311-1.0845947,1.5830688-1.0845947,2.5435791V79.6334c0,1.3551025,1.0985107,2.4536743,2.4536743,2.4536743  h4.8003693c0-1.043396,0.0020142-21.5681152,0.0020142-22.5494995c0-10.2904663,0.3378754-12.8939819,5.1539764-12.8939819  L80.1546249,46.6443253z"/><path id="path-7" d="M66.0179138,39.713604h1.2408447v6.9299812h-1.2408447V39.713604z M80.1554718,39.713604h1.2408447v6.9299812  h-1.2408447V39.713604z M78.5851364,64.2356644c0.7007675,0.6561966,1.0840378,1.5814896,1.0840378,2.5435486v12.8533783  c0,1.3550262-1.0995331,2.4545135-2.4545593,2.4545135h-3.3140182c0-1.0433884,0.0019836-21.5681114,0.0019836-22.5494995  c0-10.2904549,1.3268585-14.2384529,6.2524185-12.8940239c-0.4006653,0-0.9427261,0.1451836-1.2582321,0.3793983  c-0.0077515,0.0058136-0.0155029,0.0096893-0.0232468,0.0155029c-0.069664,0.0483932-0.139328,0.0987244-0.2070923,0.1568069  c-0.0290222,0.0251427-0.0541611,0.0483932-0.0755234,0.0696602c-1.3027573,1.2098389-2.239624,4.5509415-2.239624,8.4863243  C76.3512802,59.680851,77.2842789,63.0200119,78.5851364,64.2356644z" class="svg-style-0"/><path id="path-6" class="st0" d="M39.0221786,38.7386856h-4.0699463c-0.2700195,0-0.4800415,0.2299805-0.4800415,0.5  c-0.0100098,0.2599487-0.2299805,0.4699707-0.4899902,0.4699707h-1.2399902c-0.2700195,0-0.4799805-0.2199707-0.4899902-0.4899902  c0-0.2600098-0.2200317-0.4799805-0.4800415-0.4799805h-11.5c0,0-1.5799561,0.0599976-2.2099609,0.1699829  c-1.2200317,0.1799927-2.330018,0.5100098-3.330018,0.9599609c0,0,0,0.0100098-0.0100098,0.0100098  c-1.7299805,0.7800293-3.1599731,1.9000244-4.3200073,3.210022c-1.8800049,2.1099854-3.0299683,4.6799927-3.5899658,6.9400024  c-0.1600342,0.6199951-0.2700195,1.2199707-0.3400269,1.7700195c-0.0599976,0.4199829,0.4100342,0.6999512,0.7600098,0.4499512  c2.8776665-3.439724,7.3749247-5.9034042,12.3849344-5.9034042c4.5545044,0,3.9250641,8.4234238,3.9250641,8.4234238h-0.0100098  c0.0300293,0.460022,0.0499878,0.9199829,0.0499878,1.4000244c0,3.6799927-0.8999634,6.8200073-2.1599731,8.0199585  c-0.7000122,0.6700439-1.0900269,1.5900269-1.0900269,2.5500488v12.8899536c0,1.3600464,1.1000366,2.460022,2.460022,2.460022  l5.2694092-0.0015869c0-1.043396-0.9085693-21.5681152-0.9085693-22.5494995  c0-10.2147217,0.7548828-12.8519287,5.4862671-12.8902588c0.0337524-0.0018921,0.0695572-0.0037346,0.1016617-0.0037346  l1.2412338-0.0049324c0.2700195,0,0.4799805,0.2299805,0.4899902,0.5c0,0.2600098,0.2200317,0.4799805,0.4800415,0.4799805  h4.0699463c0.9500122,0,1.7200317-0.7699585,1.7200317-1.7299805v-5.4299927  C40.7422104,39.5086441,39.9721909,38.7386856,39.0221786,38.7386856z"/><path id="path-5" d="M31.1711025,64.2356644c0.7007637,0.6561966,1.0840359,1.5814896,1.0840359,2.5435486v12.8533783  c0,1.3550262-1.0995369,2.4545135-2.4545593,2.4545135h-3.3140182c0-1.0433884,0.0019836-21.5681114,0.0019836-22.5494995  c0-10.2904549,1.3268547-14.2384529,6.2524223-12.8940239c-0.4006653,0-0.9427319,0.1451836-1.2582359,0.3793983  c-0.0077496,0.0058136-0.015501,0.0096893-0.0232506,0.0155029c-0.0696602,0.0483932-0.1393204,0.0987244-0.2070904,0.1568069  c-0.0290184,0.0251427-0.0541592,0.0483932-0.0755215,0.0696602c-1.3027534,1.2098389-2.239624,4.5509415-2.239624,8.4863243  C28.9372444,59.680851,29.8702412,63.0200119,31.1711025,64.2356644z M23.5321884,54.7686424  c-0.0890293-1.4280128-0.3088417-2.8677864-0.7680187-4.2266464c-0.2029781-0.6006889-0.4096317-1.2156563-0.7469597-1.7567368  c-0.2481289-0.3979988-0.5834599-0.7546158-1.0085049-0.9528809c-0.5107288-0.2382278-1.0984325-0.2285538-1.6611366-0.1975708  c-2.9805775,0.1641159-5.9953356,0.8176003-8.6060362,2.3106422c-0.7490826,0.4283943-1.4762287,0.8976326-2.1893253,1.3832016  c-0.4299927,0.289978-0.8699951,0.5999756-1.3200073,0.9199829c1.9199829-3.3899536,7.5664711-6.605114,12.5764799-6.605114  C24.3631706,45.6435204,23.5421982,54.7686539,23.5321884,54.7686424z M32.7409668,39.713604h1.2408447v6.9299812h-1.2408447  V39.713604z" class="svg-style-0"/><path id="path-4" class="st0" d="M44.923687,17.4667034c-0.5572815,0.4136143-0.8857346,1.0666447-0.8857346,1.7606506v39.0099564  l-3.2907677,2.4409981l-3.0185547,2.2406158c-1.262394,0.9371071-2.0066338,2.4164619-2.0066338,3.9886971v7.4191666  c0,1.5724106,0.7444305,3.0520096,2.0072021,3.9890671l4.8344498,3.5876083  c0.6095505,0.4523163,1.4743042,0.0172501,1.4743042-0.7418289V70.5854416l1.3220367-0.9813919l4.6400223-3.4436951  l1.3953514-25.7297173l-1.3953514-26.1940689c-0.4594536,0-0.918911,0.1439991-1.3069115,0.4320459L44.923687,17.4667034z"/><path id="path-3" d="M54.6399422,69.6040497l1.3221283,0.9813919v10.5761871c0,0.759079,0.8647537,1.1941452,1.4743042,0.7418289  l4.8344498-3.5876083c1.2627716-0.9370575,2.0072517-2.4166565,2.0072517-3.9890671v-7.4189758  c0-1.572319-0.7443848-3.0517769-2.0069656-3.9888344l-3.0162849-2.2387276l-3.2927551-2.4429359V19.227354  c0-0.694006-0.3285484-1.3470364-0.8857346-1.7606506l-3.7693176-2.7980881  c-0.3880959-0.2880468-0.8475494-0.4320459-1.3070068-0.4320459v51.9237862L54.6399422,69.6040497z" class="svg-style-0"/><path id="path-2" class="st0" d="M43.7681007,2.0598018L0.2454839,34.3588257  c-0.4678683,0.3472633-0.2223083,1.0903244,0.3604003,1.0903244h13.5721493c0.6430111,0,1.2689152-0.2069016,1.7852716-0.5901299  l24.7838783-18.3937435l2.8667564-2.1273832l0.4240112-0.3135662l4.0509834-3.0066919  c0.5673981-0.4211283,1.2392349-0.6317158,1.9110756-0.6317158l1.3953514-4.0854907L50.0000114,0  C47.8092537,0,45.6184959,0.6865848,43.7681007,2.0598018z"/><path id="path-1" d="M99.7544937,34.3588257L56.2319221,2.0598018C54.3815269,0.6865848,52.1907692,0,50.0000114,0v10.3859196  c0.6718407,0,1.3436813,0.2105875,1.9110756,0.6317158l4.0509834,3.0066919l0.4240112,0.3135662l2.8687439,2.1293211  l24.7818947,18.3918056c0.516304,0.3832283,1.1422577,0.5901299,1.7852707,0.5901299h13.5721512  C99.976799,35.4491501,100.2224121,34.706089,99.7544937,34.3588257z" class="svg-style-0"/></svg>
