<?xml version="1.0" encoding="UTF-8"?>
<!-- Generator: Adobe Illustrator 28.2.0, SVG Export Plug-In . SVG Version: 6.00 Build 0)  -->
<svg version="1.1" id="tile_00000023987982505221498680000006750466361779419531_" xmlns="http://www.w3.org/2000/svg" xmlns:xlink="http://www.w3.org/1999/xlink" x="0px" y="0px" viewBox="0 0 250 151.49875" style="enable-background:new 0 0 250 151.49875;" xml:space="preserve">
<style type="text/css">
	.st0{fill:#2e3947;}
	.st1{fill:#2e3947;}
	.st2{fill:#2e3947;}
</style>
<path id="path-03_00000032626236304686335270000017691354580825011848_" class="st0" d="M250,151.49875l-151.6797-0.00002  l2.24747-27.13975l141.47565,0.00002L250,151.49875z M145.55115,93.78332L16.91932,93.78331l-7.69741,26.26274l137.95345,0.00001  L145.55115,93.78332z M103.46328,89.30621l128.30652,0.00001l-7.99245-27.28756l-118.05176-0.00001L103.46328,89.30621z   M141.54633,29.00986L35.90655,29.00985l-8.30744,28.35779l115.69991,0.00001L141.54633,29.00986z M205.6035,0.00001L110.86,0.00001  l-1.99664,24.17457l103.82652,0.00001L205.6035,0.00001z"/>
<path id="path-02_00000129916118296100022370000008843118088051285133_" class="st1" d="M222.41422,57.36765l-75.22417-0.00001  l-1.68738-28.35779l68.60434,0.00001L222.41422,57.36765z M18.23275,89.3062l81.4019,0.00001l2.1993-27.28756L26.2359,62.01863  L18.23275,89.3062z"/>
<path id="path-01_00000054964151907164021530000014376798066443531922_" class="st2" d="M44.4109,0l62.41414,0.00001  l-1.94073,24.17457l-67.56125-0.00001L44.4109,0z M233.08199,93.78333l-83.72354-0.00001l1.56372,26.26274l89.85716,0.00001  L233.08199,93.78333z M0,151.49872l94.63521,0.00002l2.18476-27.13975l-88.86209-0.00001L0,151.49872z"/>
</svg>
