<?xml version="1.0" encoding="utf-8"?>
<!-- Generator: Adobe Illustrator 21.1.0, SVG Export Plug-In . SVG Version: 6.00 Build 0)  -->
<svg version="1.1" id="Layer_1" xmlns="http://www.w3.org/2000/svg" xmlns:xlink="http://www.w3.org/1999/xlink" x="0px" y="0px"
	 viewBox="0 0 70 100" style="enable-background:new 0 0 70 100;" xml:space="preserve">
<style type="text/css">
	.st0{fill: #FFF;}
</style>
<path class="st0" d="M35,0C15.7,0,0,15.8,0,35.2c0,6.5,1.8,12.9,5.2,18.5l27.8,45c0.5,0.9,1.5,1.4,2.5,1.4c0,0,0,0,0,0
	c1,0,2-0.5,2.5-1.4l27.1-45.4c3.2-5.4,4.9-11.7,4.9-18C70,15.8,54.3,0,35,0z M35,46.9c-6.5,0-11.7-5.3-11.7-11.8
	c0-6.5,5.3-11.8,11.7-11.8s11.7,5.3,11.7,11.8C46.7,41.5,41.6,46.9,35,46.9z"/>
</svg>
