<svg id="Layer_1" data-name="Layer 1" xmlns="http://www.w3.org/2000/svg" viewBox="0 0 60 100"><defs><style> .svg-style-0 {  fill: #FFF; }</style></defs><title>symbol-39</title><path d="M57,3a9.6,9.6,0,0,0-7-3H10A9.6,9.6,0,0,0,3,3a9.6,9.6,0,0,0-3,7V90a9.6,9.6,0,0,0,3,7,9.6,9.6,0,0,0,7,3H50A10.14,10.14,0,0,0,60,90V10A9.6,9.6,0,0,0,57,3ZM23.75,7h12.5A1.11,1.11,0,0,1,37.5,8.25,1.11,1.11,0,0,1,36.25,9.5H23.75A1.11,1.11,0,0,1,22.5,8.25,1.11,1.11,0,0,1,23.75,7ZM34.42,94.41a6.22,6.22,0,0,1-8.83,0A6.25,6.25,0,0,1,30,83.75a6.24,6.24,0,0,1,4.42,10.66ZM52.5,77.5A2.53,2.53,0,0,1,50,80H10a2.53,2.53,0,0,1-2.5-2.5v-60A2.53,2.53,0,0,1,10,15H50a2.53,2.53,0,0,1,2.5,2.5v60Z" class="svg-style-0"/></svg>
