<svg version="1.1" id="Layer_1" xmlns="http://www.w3.org/2000/svg" xmlns:xlink="http://www.w3.org/1999/xlink" x="0px" y="0px" viewBox="0 0 197 170.3" style="enable-background:new 0 0 197 170.3;" xml:space="preserve"><defs><style> .svg-style-0 {  fill: #FFF; }</style></defs><path id="Path-1" d="M124.4,12.2H72.6l8.8-6.6c10.1-7.5,24.1-7.5,34.2,0L124.4,12.2z M194.1,64.3l-16-12v23.8l8.5-6.2
	c1.6-1.2,3.9-0.8,5.1,0.8c1.2,1.6,0.8,3.9-0.8,5.1L133,118l58,42.2c1.6,1.2,2,3.5,0.8,5.1c-0.7,1-1.8,1.5-3,1.5
	c-0.8,0-1.5-0.2-2.2-0.7L110,110.4c-6.9-5-16.1-5-23,0l-76.6,55.7c-1.6,1.2-3.9,0.8-5.1-0.8c-1.2-1.6-0.8-3.9,0.8-5.1L64,118
	l-58-42.1c-1.6-1.2-2-3.5-0.8-5.1c1.2-1.6,3.5-2,5.1-0.8l8.5,6.2V52.3l-16,12C1.1,65.7,0,67.8,0,70.1v93.1c0,4,3.2,7.2,7.2,7.2
	h182.7c4,0,7.2-3.2,7.2-7.2V70.1C197,67.8,195.9,65.7,194.1,64.3z M70.3,113.4l-44-32V31.9c0-6.8,5.5-12.4,12.4-12.4h119.7
	c6.8,0,12.4,5.5,12.4,12.4v49.5l-44,32l-12.4-9c-9.4-6.9-22.2-6.9-31.7,0L70.3,113.4z M57.9,37.8c0,2,1.6,3.7,3.7,3.7h93.6
	c2,0,3.7-1.6,3.7-3.7s-1.6-3.7-3.7-3.7H61.6C59.5,34.1,57.9,35.8,57.9,37.8z M38.2,55.3c0,2,1.6,3.7,3.7,3.7h113.3
	c2,0,3.7-1.6,3.7-3.7s-1.6-3.7-3.7-3.7H41.9C39.8,51.7,38.2,53.3,38.2,55.3z M41.9,76.5h113.3c2,0,3.7-1.6,3.7-3.7s-1.6-3.7-3.7-3.7
	H41.9c-2,0-3.7,1.6-3.7,3.7S39.8,76.5,41.9,76.5z" class="svg-style-0"/></svg>
