<svg xmlns="http://www.w3.org/2000/svg" xmlns:xlink="http://www.w3.org/1999/xlink" data-name="Layer 1" viewBox="0 0 250 229.987">
    <path d="M222.483 50.353H250v127.534h-32.57v52.1l-59.341-52.1H74.447l31.341-27.517h109.195a7.5 7.5 0 0 0 7.5-7.5zM36.487 201.235V142.87H0V0h214.983v142.87h-112.02zm88.961-129.8c0-9.917-8.04-17.957-17.957-17.957s-17.956 8.04-17.956 17.957S97.574 89.39 107.49 89.39s17.957-8.04 17.957-17.956m56.315 0c0-9.917-8.04-17.957-17.957-17.957s-17.956 8.04-17.956 17.957 8.04 17.956 17.956 17.956 17.957-8.04 17.957-17.956M51.176 89.39c9.918 0 17.957-8.04 17.957-17.956s-8.04-17.957-17.957-17.957-17.956 8.04-17.956 17.957S41.259 89.39 51.176 89.39"
          style="fill:#2e3947;stroke-width:0"/>
</svg>
